<svg width="159" height="49" viewBox="0 0 159 49" fill="none" xmlns="http://www.w3.org/2000/svg">
<path d="M17.7453 48.7589H1.59614C0.716982 48.7589 0 48.0432 0 47.1657V1.58463C0 0.715604 0.716982 -6.10352e-05 1.59614 -6.10352e-05H17.7453C18.6245 -6.10352e-05 19.3414 0.715605 19.3414 1.59315C19.3414 2.47069 18.6245 3.18635 17.7453 3.18635H3.18374V45.581H17.7453C18.6245 45.581 19.3414 46.2967 19.3414 47.1742C19.3414 48.0518 18.6245 48.7589 17.7453 48.7589Z" fill="#208355"/>
<path d="M30.0876 48.6312H22.6959C21.8936 48.6312 21.2363 47.9752 21.2363 47.1743C21.2363 46.3734 21.8936 45.7174 22.6959 45.7174H28.6281V3.05007H22.6959C21.8936 3.05007 21.2363 2.39405 21.2363 1.59318C21.2363 0.792319 21.8936 0.136292 22.6959 0.136292H30.0876C30.89 0.136292 31.5472 0.792319 31.5472 1.59318V47.1743C31.5472 47.9752 30.8985 48.6312 30.0876 48.6312Z" fill="#1BAD5F"/>
<path d="M23.5046 26C24.8879 26 26.0093 24.8807 26.0093 23.5C26.0093 22.1193 24.8879 21 23.5046 21C22.1214 21 21 22.1193 21 23.5C21 24.8807 22.1214 26 23.5046 26Z" fill="#208355"/>
<path d="M58.549 12.3708V35.1954H55.5616V24.6394H43.9533V35.1954H41V12.3708H43.9533V22.2453H55.5616V12.3708H58.549Z" fill="#208355"/>
<path d="M79.4866 13.5722C81.1852 14.569 82.5167 15.9492 83.4898 17.7299C84.4628 19.5105 84.9493 21.5212 84.9493 23.7704C84.9493 26.0112 84.4628 28.0304 83.4898 29.811C82.5167 31.5916 81.1852 32.9804 79.4866 33.9687C77.7881 34.9655 75.8846 35.4597 73.7593 35.4597C71.6425 35.4597 69.722 34.9655 68.0064 33.9687C66.2907 32.9804 64.9421 31.5916 63.9691 29.811C62.996 28.0304 62.5095 26.0197 62.5095 23.7704C62.5095 21.5297 62.996 19.5105 63.9691 17.7299C64.9421 15.9492 66.2907 14.5605 68.0064 13.5722C69.722 12.5839 71.6425 12.0812 73.7593 12.0812C75.8761 12.0812 77.7881 12.5754 79.4866 13.5722ZM69.5257 15.9152C68.2795 16.6393 67.3065 17.6702 66.6066 19.0249C65.9066 20.371 65.5567 21.9557 65.5567 23.7704C65.5567 25.5596 65.9066 27.1358 66.6066 28.499C67.3065 29.8621 68.2795 30.9015 69.5257 31.6257C70.7719 32.3499 72.1802 32.7077 73.7593 32.7077C75.3128 32.7077 76.7126 32.3414 77.9588 31.6087C79.205 30.876 80.178 29.8366 80.8779 28.4819C81.5778 27.1358 81.9278 25.5596 81.9278 23.7704C81.9278 21.9557 81.5778 20.3796 80.8779 19.0249C80.178 17.6788 79.205 16.6393 77.9588 15.9152C76.7126 15.191 75.3128 14.8331 73.7593 14.8331C72.1802 14.8331 70.7719 15.191 69.5257 15.9152Z" fill="#208355"/>
<path d="M102.951 12.3708V14.7649H96.4978V35.1954H93.5445V14.7649H87.0917V12.3708H102.951Z" fill="#208355"/>
<path d="M108.823 14.7649V22.569H117.512V24.8353H108.823V32.8014H118.485V35.1954H105.87V12.3708H118.485V14.7649H108.823Z" fill="#208355"/>
<path d="M125.228 32.8951H133.337V35.1954H122.275V12.3708H125.228V32.8951Z" fill="#208355"/>
<path d="M139.303 12.3708V35.1954H136.35V12.3708H139.303Z" fill="#208355"/>
<path d="M157.731 32.2818C157.211 33.2104 156.425 33.9687 155.367 34.5481C154.309 35.1274 153.003 35.4256 151.441 35.4256C149.93 35.4256 148.581 35.153 147.403 34.5992C146.226 34.0454 145.287 33.2956 144.578 32.3329C143.878 31.3702 143.469 30.2796 143.366 29.0442H146.516C146.584 29.6917 146.806 30.3222 147.181 30.9356C147.557 31.5491 148.103 32.0603 148.803 32.4607C149.503 32.8611 150.357 33.0571 151.347 33.0571C152.644 33.0571 153.634 32.7163 154.334 32.0177C155.026 31.3276 155.376 30.4415 155.376 29.3595C155.376 28.4308 155.137 27.6725 154.65 27.0932C154.164 26.5138 153.566 26.0538 152.849 25.7215C152.132 25.3892 151.159 25.0229 149.93 24.6395C148.479 24.1624 147.318 23.7193 146.447 23.2933C145.568 22.8759 144.826 22.2454 144.211 21.4019C143.597 20.5585 143.289 19.4509 143.289 18.0707C143.289 16.8864 143.58 15.8385 144.151 14.9269C144.723 14.0238 145.543 13.3166 146.618 12.8225C147.685 12.3283 148.948 12.0812 150.399 12.0812C152.644 12.0812 154.428 12.6265 155.751 13.717C157.066 14.8076 157.834 16.1963 158.056 17.8747H154.881C154.71 16.9716 154.24 16.1708 153.489 15.4807C152.73 14.7905 151.705 14.4412 150.408 14.4412C149.221 14.4412 148.266 14.7479 147.557 15.3614C146.84 15.9748 146.49 16.8438 146.49 17.9684C146.49 18.8545 146.721 19.5702 147.19 20.124C147.651 20.6778 148.231 21.1037 148.923 21.419C149.614 21.7342 150.562 22.0835 151.774 22.4669C153.242 22.944 154.428 23.3956 155.324 23.8301C156.221 24.2646 156.98 24.9121 157.612 25.7897C158.235 26.6672 158.551 27.8259 158.551 29.2658C158.508 30.3478 158.244 31.3531 157.731 32.2818Z" fill="#208355"/>
</svg>
