<svg width="133" height="33" viewBox="0 0 133 33" fill="none" xmlns="http://www.w3.org/2000/svg">
<g clip-path="url(#clip0)">
<path d="M12.4099 32.9341C10.0638 32.9341 7.96459 32.5667 6.11236 31.8319C4.29099 31.0677 2.84009 30.039 1.75962 28.7457C0.710021 27.423 0.123482 25.9386 0 24.2927H8.79811C8.92158 25.0864 9.30746 25.7035 9.95575 26.1443C10.604 26.5854 11.4067 26.8057 12.3636 26.8057C13.1045 26.8057 13.6911 26.6588 14.1233 26.3648C14.5554 26.0709 14.7715 25.6889 14.7715 25.2186C14.7715 24.6013 14.4165 24.1457 13.7065 23.8517C12.9965 23.558 11.8234 23.2346 10.1873 22.8818C8.33504 22.5292 6.79151 22.1324 5.55669 21.6914C4.32187 21.2506 3.2414 20.5306 2.31529 19.5311C1.42004 18.5317 0.972421 17.1798 0.972421 15.475C0.972421 14.0054 1.38917 12.6828 2.22267 11.5071C3.05619 10.302 4.27557 9.34672 5.88084 8.64131C7.51698 7.9359 9.47725 7.58319 11.7617 7.58319C15.1574 7.58319 17.8277 8.37679 19.7725 9.96396C21.7175 11.5512 22.8442 13.638 23.1529 16.2245H14.9568C14.8024 15.4309 14.432 14.8284 13.8454 14.4169C13.2898 13.976 12.5334 13.7556 11.5764 13.7556C10.8356 13.7556 10.2645 13.8878 9.86313 14.1524C9.49268 14.4169 9.30746 14.7843 9.30746 15.2546C9.30746 15.8424 9.66248 16.298 10.3725 16.6213C11.0825 16.9152 12.2247 17.2239 13.7991 17.5472C15.6822 17.9292 17.2412 18.3554 18.476 18.8257C19.7416 19.2959 20.8377 20.0601 21.7637 21.1183C22.7206 22.147 23.1992 23.558 23.1992 25.3509C23.1992 26.7911 22.7515 28.0843 21.8564 29.2306C20.992 30.3769 19.7416 31.288 18.1056 31.964C16.5003 32.6107 14.6018 32.9341 12.4099 32.9341Z" fill="#673AB7"/>
<path d="M37.8949 32.9341C35.3016 32.9341 32.971 32.4196 30.9027 31.3909C28.8651 30.3621 27.26 28.8926 26.0868 26.9822C24.9137 25.0716 24.3273 22.8232 24.3273 20.2366C24.3273 17.6794 24.9137 15.4456 26.0868 13.5351C27.2907 11.6246 28.9115 10.155 30.9489 9.12628C33.0172 8.09756 35.348 7.58319 37.9411 7.58319C40.5343 7.58319 42.8495 8.09756 44.8869 9.12628C46.9554 10.155 48.576 11.6246 49.749 13.5351C50.9531 15.4456 51.555 17.6794 51.555 20.2366C51.555 22.7938 50.9531 25.0422 49.749 26.9822C48.576 28.8926 46.9554 30.3621 44.8869 31.3909C42.8186 32.4196 40.488 32.9341 37.8949 32.9341ZM37.8949 25.439C39.1606 25.439 40.2102 24.9981 41.0437 24.1163C41.9079 23.2052 42.3402 21.9119 42.3402 20.2366C42.3402 18.5611 41.9079 17.2826 41.0437 16.4009C40.2102 15.5191 39.1759 15.0782 37.9411 15.0782C36.7064 15.0782 35.6721 15.5191 34.8386 16.4009C34.0051 17.2826 33.5883 18.5611 33.5883 20.2366C33.5883 21.9413 33.9897 23.2346 34.7924 24.1163C35.595 24.9981 36.6291 25.439 37.8949 25.439Z" fill="#673AB7"/>
<path d="M62.4713 0V32.6254H53.3953V0H62.4713Z" fill="#673AB7"/>
<path d="M78.2437 24.4691L83.1058 7.89185H92.7838L83.8467 32.6254H72.548L63.6111 7.89185H73.2891L78.2437 24.4691Z" fill="#673AB7"/>
<path d="M92.525 20.2366C92.525 17.6794 93.0036 15.4456 93.9605 13.5351C94.9485 11.6246 96.2758 10.155 97.9428 9.12628C99.6408 8.09756 101.524 7.58319 103.592 7.58319C105.383 7.58319 106.926 7.92121 108.223 8.59722C109.519 9.27324 110.523 10.1844 111.233 11.3307V7.89181H120.308V32.6253H111.233V29.1865C110.523 30.3327 109.504 31.244 108.176 31.92C106.88 32.5959 105.352 32.9341 103.592 32.9341C101.524 32.9341 99.6408 32.4196 97.9428 31.3909C96.2758 30.3621 94.9485 28.8926 93.9605 26.9822C93.0036 25.0422 92.525 22.7938 92.525 20.2366ZM111.233 20.2366C111.233 18.6494 110.77 17.4002 109.843 16.4891C108.948 15.5779 107.837 15.1223 106.509 15.1223C105.151 15.1223 104.024 15.5779 103.129 16.4891C102.234 17.3708 101.786 18.62 101.786 20.2366C101.786 21.8237 102.234 23.0875 103.129 24.0282C104.024 24.9393 105.151 25.3949 106.509 25.3949C107.837 25.3949 108.948 24.9393 109.843 24.0282C110.77 23.1169 111.233 21.8531 111.233 20.2366Z" fill="#673AB7"/>
<path d="M128.027 32.9782C126.422 32.9782 125.125 32.5667 124.138 31.7437C123.181 30.8913 122.702 29.8185 122.702 28.5252C122.702 27.232 123.181 26.1592 124.138 25.3067C125.125 24.4545 126.422 24.0283 128.027 24.0283C129.602 24.0283 130.867 24.4545 131.824 25.3067C132.812 26.1592 133.306 27.232 133.306 28.5252C133.306 29.7891 132.812 30.8472 131.824 31.6997C130.867 32.5519 129.602 32.9782 128.027 32.9782Z" fill="#673AB7"/>
</g>
<defs>
<clipPath id="clip0">
<rect width="133.306" height="32.9781" fill="white"/>
</clipPath>
</defs>
</svg>
